<svg xmlns="http://www.w3.org/2000/svg" width="180" height="180" viewBox="0 0 180 180" version="1.1">
	<path d="M 0 90.005 L 0 180.011 90.250 179.755 L 180.500 179.500 180.755 89.750 L 181.011 -0 90.505 -0 L 0 0 0 90.005 M 0.479 90.500 C 0.479 140, 0.601 160.104, 0.750 135.175 C 0.899 110.246, 0.899 69.746, 0.750 45.175 C 0.601 20.604, 0.479 41, 0.479 90.500 M 20 90 L 20 129 27.500 129 L 35 129 35 113.500 L 35 98 51 98 L 67 98 67 113.500 L 67 129 75 129 L 83 129 83 90 L 83 51 75 51 L 67 51 67 66.500 L 67 82 51 82 L 35 82 35 66.500 L 35 51 27.500 51 L 20 51 20 90 M 97 90 L 97 129 105 129 L 113 129 113 121.576 L 113 114.152 121.250 113.799 C 126.027 113.595, 129.963 113.879, 130.600 114.473 C 131.205 115.038, 132.993 118.537, 134.572 122.250 L 137.445 129 145.736 129 L 154.027 129 152.434 125.250 C 151.559 123.188, 149.724 118.737, 148.359 115.360 L 145.875 109.220 150.794 104.301 C 156.740 98.355, 159.998 90.543, 160.005 82.212 C 160.013 73.352, 157.427 67.419, 150.509 60.421 C 141.909 51.722, 139.251 51, 115.822 51 L 97 51 97 90 M 113 81.975 L 113 98.177 123.930 97.838 C 133.152 97.553, 135.301 97.171, 137.680 95.395 C 146.927 88.494, 146.576 74.624, 137.004 68.697 C 134.162 66.937, 131.588 66.461, 123.254 66.153 L 113 65.773 113 81.975" stroke="none" fill="black" fill-rule="evenodd"/>
</svg>